C:\Users\Nicos\Documents\OpenSimProjects\SprintingProject\Study1\PredictiveResults\IC_pred_Sprinting_optimum_28-October-2023__09-53-48_p02_maxVel_01___HTD_Minus_6_GRF.mot
version=1
nRows=5
nColumns=127
inDegrees=yes
endheader
time	ground_force_vx	ground_force_vy	ground_force_vz	ground_force_px	ground_force_py	ground_force_pz	ground_torque_x	ground_torque_y	ground_torque_z	1_ground_force_vx	1_ground_force_vy	1_ground_force_vz	1_ground_force_px	1_ground_force_py	1_ground_force_pz	1_ground_torque_x	1_ground_torque_y	1_ground_torque_z	2_ground_force_vx	2_ground_force_vy	2_ground_force_vz	2_ground_force_px	2_ground_force_py	2_ground_force_pz	2_ground_torque_x	2_ground_torque_y	2_ground_torque_z	3_ground_force_vx	3_ground_force_vy	3_ground_force_vz	3_ground_force_px	3_ground_force_py	3_ground_force_pz	3_ground_torque_x	3_ground_torque_y	3_ground_torque_z	4_ground_force_vx	4_ground_force_vy	4_ground_force_vz	4_ground_force_px	4_ground_force_py	4_ground_force_pz	4_ground_torque_x	4_ground_torque_y	4_ground_torque_z	5_ground_force_vx	5_ground_force_vy	5_ground_force_vz	5_ground_force_px	5_ground_force_py	5_ground_force_pz	5_ground_torque_x	5_ground_torque_y	5_ground_torque_z	6_ground_force_vx	6_ground_force_vy	6_ground_force_vz	6_ground_force_px	6_ground_force_py	6_ground_force_pz	6_ground_torque_x	6_ground_torque_y	6_ground_torque_z	7_ground_force_vx	7_ground_force_vy	7_ground_force_vz	7_ground_force_px	7_ground_force_py	7_ground_force_pz	7_ground_torque_x	7_ground_torque_y	7_ground_torque_z	8_ground_force_vx	8_ground_force_vy	8_ground_force_vz	8_ground_force_px	8_ground_force_py	8_ground_force_pz	8_ground_torque_x	8_ground_torque_y	8_ground_torque_z	9_ground_force_vx	9_ground_force_vy	9_ground_force_vz	9_ground_force_px	9_ground_force_py	9_ground_force_pz	9_ground_torque_x	9_ground_torque_y	9_ground_torque_z	10_ground_force_vx	10_ground_force_vy	10_ground_force_vz	10_ground_force_px	10_ground_force_py	10_ground_force_pz	10_ground_torque_x	10_ground_torque_y	10_ground_torque_z	11_ground_force_vx	11_ground_force_vy	11_ground_force_vz	11_ground_force_px	11_ground_force_py	11_ground_force_pz	11_ground_torque_x	11_ground_torque_y	11_ground_torque_z	12_ground_force_vx	12_ground_force_vy	12_ground_force_vz	12_ground_force_px	12_ground_force_py	12_ground_force_pz	12_ground_torque_x	12_ground_torque_y	12_ground_torque_z	13_ground_force_vx	13_ground_force_vy	13_ground_force_vz	13_ground_force_px	13_ground_force_py	13_ground_force_pz	13_ground_torque_x	13_ground_torque_y	13_ground_torque_z
0.056000	-20.172520	16.667711	-1.370335	0.314678	-0.000374	0.404844	0.000000	0.000000	0.000000	-3.752678	3.287278	0.273015	0.271968	0.002439	0.429573	0.000000	0.000000	0.000000	-0.606627	0.457601	0.005540	0.242022	0.004788	0.424196	0.000000	0.000000	0.000000	-1.406411	1.016323	0.006853	0.243954	0.003881	0.401625	0.000000	0.000000	0.000000	-0.000795	0.000650	0.000185	0.159109	0.011281	0.461365	0.000000	0.000000	0.000000	-0.113888	0.085508	0.009262	0.212364	0.006550	0.421374	0.000000	0.000000	0.000000	-0.000070	0.000052	0.000025	0.093731	0.013599	0.410088	0.000000	0.000000	0.000000	-0.000000	0.000000	0.000000	-0.408087	0.197964	0.138638	0.000000	0.000000	0.000000	-0.000000	0.000000	-0.000000	-0.398291	0.220480	0.120103	0.000000	0.000000	0.000000	-0.000000	0.000000	0.000000	-0.393996	0.233720	0.126793	0.000000	0.000000	0.000000	-0.000000	0.000000	0.000000	-0.401372	0.231641	0.147883	0.000000	0.000000	0.000000	-0.000000	0.000000	0.000000	-0.380071	0.277101	0.100274	0.000000	0.000000	0.000000	-0.000000	0.000000	0.000000	-0.394251	0.248444	0.132509	0.000000	0.000000	0.000000	-0.000000	0.000000	0.000000	-0.395272	0.307343	0.155371	0.000000	0.000000	0.000000
0.056610	-41.594371	34.529362	-2.507087	0.316638	-0.001428	0.405111	0.000000	0.000000	0.000000	-7.018326	6.170555	0.557806	0.273808	0.001425	0.429611	0.000000	0.000000	0.000000	-1.347831	1.017399	0.010277	0.244098	0.003881	0.424231	0.000000	0.000000	0.000000	-2.884210	2.087459	0.009339	0.246147	0.002997	0.401666	0.000000	0.000000	0.000000	-0.002192	0.001791	0.000496	0.160988	0.010328	0.460993	0.000000	0.000000	0.000000	-0.273062	0.205161	0.021340	0.214453	0.005642	0.421262	0.000000	0.000000	0.000000	-0.000190	0.000142	0.000067	0.095876	0.012686	0.409386	0.000000	0.000000	0.000000	-0.000000	0.000000	-0.000000	-0.397252	0.197785	0.138197	0.000000	0.000000	0.000000	-0.000000	0.000000	-0.000000	-0.387800	0.220330	0.119630	0.000000	0.000000	0.000000	-0.000000	0.000000	0.000000	-0.383857	0.233663	0.126421	0.000000	0.000000	0.000000	-0.000000	0.000000	0.000000	-0.391238	0.231566	0.147502	0.000000	0.000000	0.000000	-0.000000	0.000000	0.000000	-0.370393	0.277079	0.099898	0.000000	0.000000	0.000000	-0.000000	0.000000	0.000000	-0.384288	0.248387	0.132128	0.000000	0.000000	0.000000	-0.000000	0.000000	0.000000	-0.386012	0.307285	0.154958	0.000000	0.000000	0.000000
0.058537	-161.333663	135.656559	-6.860084	0.322715	-0.004579	0.405799	0.000000	0.000000	0.000000	-43.175123	38.278816	3.843131	0.279529	-0.001636	0.429622	0.000000	0.000000	0.000000	-8.992500	6.903600	0.088818	0.250565	0.001128	0.424301	0.000000	0.000000	0.000000	-13.926232	10.276952	0.067427	0.252968	0.000315	0.401761	0.000000	0.000000	0.000000	-0.047440	0.039225	0.010201	0.166861	0.007340	0.459854	0.000000	0.000000	0.000000	-3.036543	2.320984	0.230199	0.220960	0.002854	0.420897	0.000000	0.000000	0.000000	-0.004302	0.003258	0.001425	0.102537	0.009757	0.407278	0.000000	0.000000	0.000000	-0.000000	0.000000	-0.000000	-0.362992	0.197209	0.136938	0.000000	0.000000	0.000000	-0.000000	0.000000	-0.000000	-0.354614	0.219835	0.118250	0.000000	0.000000	0.000000	-0.000000	0.000000	0.000000	-0.351755	0.233427	0.125304	0.000000	0.000000	0.000000	-0.000000	0.000000	0.000000	-0.359136	0.231276	0.146363	0.000000	0.000000	0.000000	-0.000000	0.000000	0.000000	-0.339785	0.276944	0.098720	0.000000	0.000000	0.000000	-0.000000	0.000000	0.000000	-0.352747	0.248149	0.130972	0.000000	0.000000	0.000000	-0.000000	0.000000	0.000000	-0.356716	0.307034	0.153645	0.000000	0.000000	0.000000
0.059934	-258.818538	222.219993	-14.602040	0.326946	-0.006642	0.406235	0.000000	0.000000	0.000000	-109.622977	99.030503	7.777483	0.283514	-0.003686	0.429601	0.000000	0.000000	0.000000	-25.382644	20.167089	0.076311	0.255051	-0.000749	0.424350	0.000000	0.000000	0.000000	-44.375126	33.893237	-0.103129	0.257697	-0.001511	0.401830	0.000000	0.000000	0.000000	-0.363446	0.311017	0.076402	0.170924	0.005207	0.459072	0.000000	0.000000	0.000000	-9.640373	7.626002	0.668394	0.225468	0.000919	0.420649	0.000000	0.000000	0.000000	-0.039056	0.030631	0.012743	0.107134	0.007590	0.405844	0.000000	0.000000	0.000000	-0.000000	0.000000	-0.000000	-0.338136	0.196781	0.136133	0.000000	0.000000	0.000000	-0.000000	0.000000	-0.000000	-0.330526	0.219454	0.117344	0.000000	0.000000	0.000000	-0.000000	0.000000	0.000000	-0.328420	0.233203	0.124541	0.000000	0.000000	0.000000	-0.000000	0.000000	0.000000	-0.335793	0.231015	0.145587	0.000000	0.000000	0.000000	-0.000000	0.000000	0.000000	-0.317571	0.276782	0.097880	0.000000	0.000000	0.000000	-0.000000	0.000000	0.000000	-0.329826	0.247920	0.130171	0.000000	0.000000	0.000000	-0.000000	0.000000	0.000000	-0.335453	0.306787	0.152690	0.000000	0.000000	0.000000
0.060544	-296.458177	260.232468	-21.067180	0.328730	-0.007472	0.406430	0.000000	0.000000	0.000000	-139.912629	129.277585	8.261097	0.285192	-0.004525	0.429601	0.000000	0.000000	0.000000	-42.124154	34.270192	-0.308886	0.256932	-0.001529	0.424381	0.000000	0.000000	0.000000	-66.941564	52.305911	-0.843721	0.259682	-0.002270	0.401871	0.000000	0.000000	0.000000	-0.815203	0.715520	0.168696	0.172619	0.004290	0.458745	0.000000	0.000000	0.000000	-14.227493	11.521492	0.870704	0.227357	0.000103	0.420553	0.000000	0.000000	0.000000	-0.099628	0.079985	0.032520	0.109056	0.006630	0.405239	0.000000	0.000000	0.000000	-0.000000	0.000000	-0.000000	-0.327260	0.196587	0.135799	0.000000	0.000000	0.000000	-0.000000	0.000000	-0.000000	-0.319988	0.219278	0.116963	0.000000	0.000000	0.000000	-0.000000	0.000000	0.000000	-0.318212	0.233093	0.124217	0.000000	0.000000	0.000000	-0.000000	0.000000	0.000000	-0.325581	0.230888	0.145259	0.000000	0.000000	0.000000	-0.000000	0.000000	0.000000	-0.307860	0.276695	0.097515	0.000000	0.000000	0.000000	-0.000000	0.000000	0.000000	-0.319801	0.247806	0.129828	0.000000	0.000000	0.000000	-0.000000	0.000000	0.000000	-0.326159	0.306662	0.152271	0.000000	0.000000	0.000000
